<?xml version="1.0" encoding="UTF-8"?>
<svg version="1.1" xmlns="http://www.w3.org/2000/svg" width="500" height="500">
<path d="M0 0 C1.1446875 0.495 1.1446875 0.495 2.3125 1 C4.99069135 2.17436686 4.99069135 2.17436686 8 2 C8.90298828 1.51660156 8.90298828 1.51660156 9.82421875 1.0234375 C14.63192066 -1.237995 21.20920191 -0.91704733 26.19921875 0.72265625 C30.66628263 3.11607225 33.75108442 6.50216884 36 11 C36.39723553 15.09303958 36.51528371 19.20456743 36.6875 23.3125 C36.74744141 24.45396484 36.80738281 25.59542969 36.86914062 26.77148438 C36.91619141 27.87427734 36.96324219 28.97707031 37.01171875 30.11328125 C37.08072388 31.62595581 37.08072388 31.62595581 37.15112305 33.16918945 C36.990344 36.18087447 36.27271924 38.28447175 35 41 C32.03 40.505 32.03 40.505 29 40 C28.97494385 39.3294458 28.9498877 38.6588916 28.92407227 37.96801758 C28.80769199 34.9160041 28.68515652 31.86426742 28.5625 28.8125 C28.52318359 27.75740234 28.48386719 26.70230469 28.44335938 25.61523438 C28.40146484 24.59365234 28.35957031 23.57207031 28.31640625 22.51953125 C28.27974854 21.58214111 28.24309082 20.64475098 28.20532227 19.67895508 C27.92916441 14.48622888 27.92916441 14.48622888 25.3125 10.25 C22.38044074 8.6651031 20.34627989 8.13122666 17 8 C13.32519416 9.30096474 13.32519416 9.30096474 10 11 C9.01 11.33 8.02 11.66 7 12 C6.21226083 15.53501458 5.82504198 18.90249788 5.68359375 22.51953125 C5.64169922 23.54111328 5.59980469 24.56269531 5.55664062 25.61523438 C5.49766602 27.19788086 5.49766602 27.19788086 5.4375 28.8125 C5.39431641 29.88693359 5.35113281 30.96136719 5.30664062 32.06835938 C5.20089017 34.71212082 5.09879767 37.3559711 5 40 C-0.75 41.125 -0.75 41.125 -3 40 C-3.07412765 34.78559487 -3.12859104 29.57149607 -3.16479492 24.35668945 C-3.17988641 22.58254657 -3.20036191 20.80844102 -3.22631836 19.03442383 C-3.26268641 16.48509513 -3.27972238 13.93625941 -3.29296875 11.38671875 C-3.30845261 10.59287277 -3.32393646 9.79902679 -3.33988953 8.98112488 C-3.34158031 3.45538549 -3.34158031 3.45538549 -1.48168945 0.97583008 C-0.99273193 0.65380615 -0.50377441 0.33178223 0 0 Z " fill="#D8D8D8" transform="translate(347,228)"/>
<path d="M0 0 C2.25 0.125 2.25 0.125 5 1 C8.97023789 6.19931357 11.4363062 12.04172837 14.08789062 17.98632812 C14.42111328 18.71658203 14.75433594 19.44683594 15.09765625 20.19921875 C15.39164307 20.85752686 15.68562988 21.51583496 15.98852539 22.1940918 C17.08666557 24.15473454 18.3478276 25.48976782 20 27 C20.28198242 26.46109131 20.56396484 25.92218262 20.85449219 25.36694336 C22.15164958 22.88975519 23.45081084 20.41362315 24.75 17.9375 C25.1934375 17.08994141 25.636875 16.24238281 26.09375 15.36914062 C33.49401285 1.27599299 33.49401285 1.27599299 36.0625 -0.125 C38 0 38 0 39.75 1.4375 C40.1625 1.953125 40.575 2.46875 41 3 C39.21127475 7.57580879 37.17969187 12.01728468 35.12109375 16.4765625 C33.93154689 19.04505728 33.93154689 19.04505728 33 22 C32.34 22 31.68 22 31 22 C30.79375 22.9075 30.5875 23.815 30.375 24.75 C29.3025889 28.44639571 27.80715299 31.88587607 26.1875 35.375 C25.46626953 36.93347656 25.46626953 36.93347656 24.73046875 38.5234375 C23 41 23 41 20.48828125 42.0390625 C18 42 18 42 16.5 40.77880859 C14.82025269 38.78684263 13.70018995 36.81906001 12.51171875 34.5 C12.05506836 33.61763672 11.59841797 32.73527344 11.12792969 31.82617188 C10.41491699 30.4272168 10.41491699 30.4272168 9.6875 29 C8.70815944 27.09317014 7.72770049 25.18691425 6.74609375 23.28125 C6.04009033 21.91033203 6.04009033 21.91033203 5.31982422 20.51171875 C3.28928109 16.6474517 1.09230543 12.88841554 -1.171875 9.15625 C-2.23594231 6.38565965 -1.84203168 4.80677228 -1 2 C-0.67 1.34 -0.34 0.68 0 0 Z " fill="#D4D4D4" transform="translate(213,228)"/>
<path d="M0 0 C0.99 0.66 1.98 1.32 3 2 C2.67 3.98 2.34 5.96 2 8 C5.153368 8.70074844 7.72724974 9 11 9 C11 9.66 11 10.32 11 11 C11.94875 10.79375 12.8975 10.5875 13.875 10.375 C14.90625 10.25125 15.9375 10.1275 17 10 C17.66 10.66 18.32 11.32 19 12 C19.66 11.01 20.32 10.02 21 9 C24.125 8.3125 24.125 8.3125 27 8 C27.99 10.97 27.99 10.97 29 14 C23.85585338 17.58531431 19.16707595 18 13 18 C11.2984375 17.4740625 11.2984375 17.4740625 9.5625 16.9375 C5.97740216 15.9940532 4.4856253 16.1521452 1 17 C-0.33568021 16.67619874 -1.66923011 16.34342449 -3 16 C-4.34198878 16.29657211 -5.67747917 16.6260648 -7 17 C-6.98839844 17.63808594 -6.97679687 18.27617187 -6.96484375 18.93359375 C-6.95582031 19.75988281 -6.94679688 20.58617187 -6.9375 21.4375 C-6.92589844 22.26121094 -6.91429687 23.08492188 -6.90234375 23.93359375 C-7 26 -7 26 -8 27 C-9.66617115 27.04063832 -11.33388095 27.042721 -13 27 C-12.67 24.03 -12.34 21.06 -12 18 C-16.51830649 15.74084675 -19.25177201 15.97513495 -24 17 C-26.86673164 17.96026816 -26.86673164 17.96026816 -29 19 C-29.391875 18.525625 -29.78375 18.05125 -30.1875 17.5625 C-32.44966312 15.61235938 -34.04337034 15.22743305 -37 15 C-37.66 15.66 -38.32 16.32 -39 17 C-41.625 16.625 -41.625 16.625 -44 16 C-43.6875 13.125 -43.6875 13.125 -43 10 C-40 8 -40 8 -38.125 8.3125 C-37.42375 8.539375 -36.7225 8.76625 -36 9 C-35.21625 9.144375 -34.4325 9.28875 -33.625 9.4375 C-31 10 -31 10 -28 11.3125 C-27.01 11.539375 -26.02 11.76625 -25 12 C-23.31295807 10.69254251 -21.64639965 9.35827971 -20 8 C-17 8.3125 -17 8.3125 -14 9 C-13.0925 8.814375 -12.185 8.62875 -11.25 8.4375 C-10.5075 8.293125 -9.765 8.14875 -9 8 C-8.34 8.66 -7.68 9.32 -7 10 C-6.61908203 9.16855469 -6.61908203 9.16855469 -6.23046875 8.3203125 C-5.88628906 7.59585937 -5.54210937 6.87140625 -5.1875 6.125 C-4.85105469 5.40570313 -4.51460938 4.68640625 -4.16796875 3.9453125 C-3 2 -3 2 0 0 Z M-3 9 C-3.33 9.66 -3.66 10.32 -4 11 C-3.01 11.33 -2.02 11.66 -1 12 C-0.34 11.01 0.32 10.02 1 9 C-0.32 9 -1.64 9 -3 9 Z " fill="#B0B4B3" transform="translate(365,266)"/>
<path d="M0 0 C2.6875 0.875 2.6875 0.875 5 2 C5.05058729 8.94170022 5.08568579 15.88335315 5.10986328 22.82519531 C5.11993924 25.18816911 5.13360029 27.55113039 5.15087891 29.9140625 C5.17505724 33.30471888 5.18646699 36.69521084 5.1953125 40.0859375 C5.20563507 41.14743011 5.21595764 42.20892273 5.22659302 43.30258179 C5.22674408 44.28344757 5.22689514 45.26431335 5.22705078 46.27490234 C5.231492 47.14094086 5.23593323 48.00697937 5.24050903 48.89926147 C5 51 5 51 3 53 C-0.125 52.625 -0.125 52.625 -3 52 C-3.07587748 44.91592242 -3.12852671 37.83194906 -3.16479492 30.74755859 C-3.17990945 28.33606043 -3.20040153 25.92458986 -3.22631836 23.51318359 C-3.26258425 20.05299072 -3.27969956 16.59316029 -3.29296875 13.1328125 C-3.30845261 12.04944611 -3.32393646 10.96607971 -3.33988953 9.84988403 C-3.34011612 8.8489975 -3.34034271 7.84811096 -3.34057617 6.81689453 C-3.34723801 5.93309113 -3.35389984 5.04928772 -3.36076355 4.13870239 C-3.24171158 3.4329306 -3.12265961 2.72715881 -3 2 C-2.01 1.34 -1.02 0.68 0 0 Z " fill="#EEEEEE" transform="translate(117,216)"/>
<path d="M0 0 C1.875 0.75 1.875 0.75 2.875 1.75 C2.97603255 4.54993597 3.01470088 7.32468644 3.0078125 10.125 C3.00876923 10.96466309 3.00972595 11.80432617 3.01071167 12.66943359 C3.01139348 14.44824295 3.00953917 16.22705477 3.00537109 18.00585938 C3.00002283 20.73833776 3.00531605 23.47065176 3.01171875 26.203125 C3.01105797 27.9270837 3.00977681 29.65104229 3.0078125 31.375 C3.00983673 32.19790527 3.01186096 33.02081055 3.01394653 33.86865234 C2.98995054 39.63504946 2.98995054 39.63504946 1.875 40.75 C-0.5625 40.9375 -0.5625 40.9375 -3.125 40.75 C-5.66194403 38.21305597 -5.38212283 36.57368559 -5.42854309 33.11158752 C-5.42763168 32.3438652 -5.42672028 31.57614288 -5.42578125 30.78515625 C-5.43006638 29.99604355 -5.4343515 29.20693085 -5.43876648 28.39390564 C-5.44451363 26.72363241 -5.44500721 25.05333414 -5.44067383 23.38305664 C-5.43751655 20.82590028 -5.46095751 18.2699036 -5.48632812 15.71289062 C-5.48860134 14.0911473 -5.48930451 12.46940085 -5.48828125 10.84765625 C-5.497491 10.08195816 -5.50670074 9.31626007 -5.51618958 8.52735901 C-5.47017337 3.2520869 -5.47017337 3.2520869 -3.73510742 0.72827148 C-2.125 -0.25 -2.125 -0.25 0 0 Z " fill="#DEDEDE" transform="translate(169.125,228.25)"/>
<path d="M0 0 C0.99 0.33 1.98 0.66 3 1 C3.33 2.98 3.66 4.96 4 7 C5.32 6.67 6.64 6.34 8 6 C8.99 7.485 8.99 7.485 10 9 C8.78763672 9.82564453 8.78763672 9.82564453 7.55078125 10.66796875 C3.20181351 15.01693649 4.2152603 21.57845494 4.1875 27.3125 C4.16236328 28.53001953 4.13722656 29.74753906 4.11132812 31.00195312 C4.05251099 34.00162687 4.01618961 36.99984298 4 40 C-0.75 41.125 -0.75 41.125 -3 40 C-3.07412765 34.78559487 -3.12859104 29.57149607 -3.16479492 24.35668945 C-3.17988641 22.58254657 -3.20036191 20.80844102 -3.22631836 19.03442383 C-3.26268641 16.48509513 -3.27972238 13.93625941 -3.29296875 11.38671875 C-3.30845261 10.59287277 -3.32393646 9.79902679 -3.33988953 8.98112488 C-3.34158031 3.45538549 -3.34158031 3.45538549 -1.48168945 0.97583008 C-0.99273193 0.65380615 -0.50377441 0.33178223 0 0 Z " fill="#E6E6E6" transform="translate(347,228)"/>
<path d="M0 0 C0.02464775 5.53588533 0.04283496 11.071739 0.05493164 16.60766602 C0.05997244 18.4924373 0.06680498 20.37720465 0.07543945 22.26196289 C0.08751617 24.96501636 0.09323068 27.66801831 0.09765625 30.37109375 C0.10281754 31.21900986 0.10797882 32.06692596 0.11329651 32.9405365 C0.11349195 34.96071068 0.06206211 36.98077934 0 39 C-1 40 -1 40 -3.5625 40.0625 C-4.366875 40.041875 -5.17125 40.02125 -6 40 C-11.87415829 30.08590675 -7.53691276 11.14236781 -7 0 C-4.3333581 -1.33332095 -2.83319697 -0.67102033 0 0 Z " fill="#E1E1E1" transform="translate(300,229)"/>
<path d="M0 0 C1.67542976 0.28604898 3.34385343 0.61781233 5 1 C5.7109375 2.55859375 5.7109375 2.55859375 6 5 C4.96612742 7.47494079 3.89970533 9.71986405 2.625 12.0625 C0.03518711 16.90556805 0.03518711 16.90556805 -2 22 C-2.66 22 -3.32 22 -4 22 C-4.226875 22.969375 -4.45375 23.93875 -4.6875 24.9375 C-6.02234973 29.69229318 -8.49175879 33.77811307 -11 38 C-12.53445094 34.93109813 -11.54984289 32.29905734 -11 29 C-11.99 30.32 -12.98 31.64 -14 33 C-15.32 32.34 -16.64 31.68 -18 31 C-17.03904845 28.9302582 -16.08866035 27.11239003 -14.671875 25.31640625 C-12.47675826 22.27504124 -10.78959879 19.00681938 -9.0625 15.6875 C-1.7778072 1.7778072 -1.7778072 1.7778072 0 0 Z " fill="#C5C5C5" transform="translate(248,228)"/>
<path d="M0 0 C0.66 0.33 1.32 0.66 2 1 C2 14.86 2 28.72 2 43 C0.68 43.66 -0.64 44.32 -2 45 C-2.04934154 38.91277254 -2.08569167 32.8256608 -2.10986328 26.73828125 C-2.11993712 24.66632053 -2.13359666 22.59437407 -2.15087891 20.52246094 C-2.17506664 17.54879236 -2.18646908 14.5753113 -2.1953125 11.6015625 C-2.20563507 10.67131256 -2.21595764 9.74106262 -2.22659302 8.78262329 C-2.22674408 7.92188202 -2.22689514 7.06114075 -2.22705078 6.17431641 C-2.231492 5.41486725 -2.23593323 4.65541809 -2.24050903 3.87295532 C-2 2 -2 2 0 0 Z " fill="#FCFCFC" transform="translate(117,222)"/>
<path d="M0 0 C1.051875 0.3403125 1.051875 0.3403125 2.125 0.6875 C2.90875 0.831875 3.6925 0.97625 4.5 1.125 C7.125 1.6875 7.125 1.6875 10.3125 2.8125 C13.04176968 4.01775238 13.04176968 4.01775238 15.125 2.6875 C14.795 3.6775 14.465 4.6675 14.125 5.6875 C13.465 5.6875 12.805 5.6875 12.125 5.6875 C12.455 7.0075 12.785 8.3275 13.125 9.6875 C11.3125 10.375 11.3125 10.375 9.125 10.6875 C8.10303008 9.70996356 7.10520375 8.7069119 6.125 7.6875 C3.62082411 6.78621362 3.62082411 6.78621362 1.125 6.6875 C0.465 7.3475 -0.195 8.0075 -0.875 8.6875 C-3.5 8.3125 -3.5 8.3125 -5.875 7.6875 C-5.5625 4.8125 -5.5625 4.8125 -4.875 1.6875 C-1.875 -0.3125 -1.875 -0.3125 0 0 Z " fill="#6E7170" transform="translate(326.875,274.3125)"/>
<path d="M0 0 C1.67542976 0.28604898 3.34385343 0.61781233 5 1 C5.223293 3.06093408 5.42802887 5.1238839 5.625 7.1875 C5.74101562 8.33605469 5.85703125 9.48460937 5.9765625 10.66796875 C6.00023426 14.03330416 5.47419799 16.01221706 4 19 C2.02 18.67 0.04 18.34 -2 18 C-1.85980308 15.18711295 -1.71312045 12.37483115 -1.5625 9.5625 C-1.52318359 8.76005859 -1.48386719 7.95761719 -1.44335938 7.13085938 C-1.11328125 1.11328125 -1.11328125 1.11328125 0 0 Z " fill="#ECECEC" transform="translate(378,250)"/>
<path d="M0 0 C0.97591583 3.38317487 0.85856655 5.5657338 0 9 C2.16666667 8.16666667 2.16666667 8.16666667 3 6 C5.0625 4.875 5.0625 4.875 7 4 C7 4.99 7 5.98 7 7 C6.34 7 5.68 7 5 7 C4.773125 7.969375 4.54625 8.93875 4.3125 9.9375 C2.97765027 14.69229318 0.50824121 18.77811307 -2 23 C-3.53445094 19.93109813 -2.54984289 17.29905734 -2 14 C-2.99 15.32 -3.98 16.64 -5 18 C-6.32 17.34 -7.64 16.68 -9 16 C-8.02584598 13.90182211 -7.05777917 12.07353712 -5.625 10.25 C-3.31397418 7.05011809 -1.6991225 3.55349477 0 0 Z " fill="#C4C4C4" transform="translate(239,243)"/>
<path d="M0 0 C0.66 1.98 1.32 3.96 2 6 C-3.14414662 9.58531431 -7.83292405 10 -14 10 C-14 8.68 -14 7.36 -14 6 C-14.99 6.33 -15.98 6.66 -17 7 C-17 6.34 -17 5.68 -17 5 C-12.61538462 2 -12.61538462 2 -10 2 C-9.34 2.66 -8.68 3.32 -8 4 C-7.34 3.01 -6.68 2.02 -6 1 C-3 0 -3 0 0 0 Z " fill="#E0E2E2" transform="translate(392,274)"/>
<path d="M0 0 C2.90118942 0.46419031 4.40719244 0.44077954 7.125 -0.5 C7.455 0.82 7.785 2.14 8.125 3.5 C7.135 3.995 7.135 3.995 6.125 4.5 C5.795 5.49 5.465 6.48 5.125 7.5 C0.505 7.83 -4.115 8.16 -8.875 8.5 C-8.875 7.51 -8.875 6.52 -8.875 5.5 C-8.215 5.17 -7.555 4.84 -6.875 4.5 C-6.545 3.84 -6.215 3.18 -5.875 2.5 C-4.31622862 -0.61754275 -3.39258728 -0.59001518 0 0 Z " fill="#D0D3D4" transform="translate(347.875,274.5)"/>
<path d="M0 0 C2.475 0.99 2.475 0.99 5 2 C5 18.17 5 34.34 5 51 C4.67 51 4.34 51 4 51 C3.98018066 49.95134766 3.96036133 48.90269531 3.93994141 47.82226562 C3.86339227 43.90081324 3.77475432 39.97970828 3.68261719 36.05859375 C3.64452985 34.3672577 3.6096431 32.67584622 3.578125 30.984375 C3.53203102 28.54139394 3.47411441 26.09892319 3.4140625 23.65625 C3.40251129 22.91008423 3.39096008 22.16391846 3.37905884 21.3951416 C3.23937757 16.33263367 2.59201037 11.82622059 1 7 C0.01 6.67 -0.98 6.34 -2 6 C-2 4.35 -2 2.7 -2 1 C-1.34 0.67 -0.68 0.34 0 0 Z " fill="#8A8A8A" transform="translate(117,216)"/>
<path d="M0 0 C0 12.87 0 25.74 0 39 C-0.66 38.67 -1.32 38.34 -2 38 C-2.33 26.12 -2.66 14.24 -3 2 C-3.66 1.67 -4.32 1.34 -5 1 C-5 1.66 -5 2.32 -5 3 C-5.66 3 -6.32 3 -7 3 C-7 2.01 -7 1.02 -7 0 C-5 -1 -5 -1 0 0 Z " fill="#EAEAEA" transform="translate(300,229)"/>
<path d="M0 0 C0.33 0.66 0.66 1.32 1 2 C2.32 2 3.64 2 5 2 C4.47731534 4.76276177 3.89130413 7.3260876 3 10 C2.01 10 1.02 10 0 10 C-0.33 10.99 -0.66 11.98 -1 13 C-1.33 13.66 -1.66 14.32 -2 15 C-2.99 15 -3.98 15 -5 15 C-5.6875 13.375 -5.6875 13.375 -6 11 C-4.5625 7.75 -4.5625 7.75 -3 5 C-2.34 5 -1.68 5 -1 5 C-0.67 3.35 -0.34 1.7 0 0 Z " fill="#EEEEEE" transform="translate(244,237)"/>
<path d="M0 0 C1.83246906 3.66493813 2.24888181 4.69456444 2.22705078 8.49316406 C2.22689972 9.37377502 2.22674866 10.25438599 2.22659302 11.16168213 C2.21627045 12.10348328 2.20594788 13.04528442 2.1953125 14.015625 C2.1924826 14.98659119 2.18965271 15.95755737 2.18673706 16.95794678 C2.17555292 20.05542385 2.15045142 23.1526105 2.125 26.25 C2.11496792 28.35155832 2.10584247 30.45312118 2.09765625 32.5546875 C2.07561934 37.70323669 2.04110145 42.85156913 2 48 C3.32 47.34 4.64 46.68 6 46 C6.33 47.32 6.66 48.64 7 50 C2.25 51.125 2.25 51.125 0 50 C0 33.5 0 17 0 0 Z " fill="#E1E1E1" transform="translate(114,218)"/>
<path d="M0 0 C1.07310858 3.27185553 0.89263102 5.42947592 0.0625 8.75 C-0.13214844 9.54921875 -0.32679688 10.3484375 -0.52734375 11.171875 C-0.76130859 12.07679688 -0.76130859 12.07679688 -1 13 C-5.75 14.125 -5.75 14.125 -8 13 C-7.74438677 10.6568787 -7.40729228 8.32156597 -7 6 C-6.34 5.67 -5.68 5.34 -5 5 C-3.31337542 3.35353315 -1.64488294 1.68816933 0 0 Z " fill="#E7E7E7" transform="translate(237,256)"/>
<path d="M0 0 C0.12375 1.11375 0.2475 2.2275 0.375 3.375 C0.6465813 7.03103677 0.6465813 7.03103677 3 9 C2.625 12.125 2.625 12.125 2 15 C0 14 0 14 -1 11 C-1.99 10.34 -2.98 9.68 -4 9 C-4.6875 5.375 -4.6875 5.375 -5 2 C-1.125 0 -1.125 0 0 0 Z " fill="#F9F9F9" transform="translate(225,243)"/>
<path d="M0 0 C0.04254356 1.99954746 0.04080783 4.00041636 0 6 C-1 7 -1 7 -3.4375 7.1875 C-6 7 -6 7 -8 5 C-7.75 2.4375 -7.75 2.4375 -7 0 C-4.3333581 -1.33332095 -2.83319697 -0.67102033 0 0 Z " fill="#D1D1D1" transform="translate(172,217)"/>
<path d="M0 0 C0.78375 0.185625 1.5675 0.37125 2.375 0.5625 C4.97089775 1.25962266 4.97089775 1.25962266 7 0 C6.67 0.99 6.34 1.98 6 3 C5.34 3 4.68 3 4 3 C4.33 4.32 4.66 5.64 5 7 C3.1875 7.6875 3.1875 7.6875 1 8 C-0.5625 6.5625 -0.5625 6.5625 -2 5 C-2.99 5 -3.98 5 -5 5 C-4.67 3.68 -4.34 2.36 -4 1 C-2.02 1.495 -2.02 1.495 0 2 C0 1.34 0 0.68 0 0 Z " fill="#B6BABA" transform="translate(335,277)"/>
<path d="M0 0 C1.66666667 0 3.33333333 0 5 0 C5 0.66 5 1.32 5 2 C5.66 2.33 6.32 2.66 7 3 C6.01 3.33 5.02 3.66 4 4 C5.32 4 6.64 4 8 4 C7.67 5.32 7.34 6.64 7 8 C5.948125 7.814375 4.89625 7.62875 3.8125 7.4375 C0.42880118 7.04920669 -1.76425888 7.11752515 -5 8 C-4.67 6.35 -4.34 4.7 -4 3 C-3.34 3.66 -2.68 4.32 -2 5 C-1.34 4.34 -0.68 3.68 0 3 C0 2.01 0 1.02 0 0 Z " fill="#8E9292" transform="translate(371,275)"/>
<path d="M0 0 C3.875 0.875 3.875 0.875 5 2 C5.08861992 4.8116338 5.11522355 7.59858255 5.09765625 10.41015625 C5.0962413 11.25219101 5.09482635 12.09422577 5.09336853 12.96177673 C5.08775263 15.66205335 5.07519748 18.36224828 5.0625 21.0625 C5.05748705 22.88867068 5.05292379 24.71484266 5.04882812 26.54101562 C5.03777804 31.02737542 5.02050279 35.51367384 5 40 C4.67 40 4.34 40 4 40 C4 27.79 4 15.58 4 3 C2.35 2.67 0.7 2.34 -1 2 C-0.67 1.34 -0.34 0.68 0 0 Z " fill="#C2C2C2" transform="translate(167,228)"/>
<path d="M0 0 C0 2.31 0 4.62 0 7 C-1.99954746 7.04254356 -4.00041636 7.04080783 -6 7 C-7 6 -7 6 -7.0625 2.9375 C-7.041875 1.968125 -7.02125 0.99875 -7 0 C-4.3333581 -1.33332095 -2.83319697 -0.67102033 0 0 Z " fill="#C7C7C7" transform="translate(300,217)"/>
<path d="M0 0 C0.99 0 1.98 0 3 0 C3 3.3 3 6.6 3 10 C1.35 10 -0.3 10 -2 10 C-1.85950482 8.52031676 -1.71245174 7.04125484 -1.5625 5.5625 C-1.48128906 4.73878906 -1.40007812 3.91507812 -1.31640625 3.06640625 C-1 1 -1 1 0 0 Z " fill="#BABABA" transform="translate(354,283)"/>
<path d="M0 0 C0.99 0.66 1.98 1.32 3 2 C3 2.99 3 3.98 3 5 C2.34 5 1.68 5 1 5 C1 5.99 1 6.98 1 8 C-0.65 8 -2.3 8 -4 8 C-3.6875 5.125 -3.6875 5.125 -3 2 C-2.01 1.34 -1.02 0.68 0 0 Z " fill="#AFB1AE" transform="translate(365,266)"/>
<path d="M0 0 C0.99 0.33 1.98 0.66 3 1 C2.34 1 1.68 1 1 1 C0.21226083 4.53501458 -0.17495802 7.90249788 -0.31640625 11.51953125 C-0.35830078 12.54111328 -0.40019531 13.56269531 -0.44335938 14.61523438 C-0.48267578 15.67033203 -0.52199219 16.72542969 -0.5625 17.8125 C-0.60568359 18.88693359 -0.64886719 19.96136719 -0.69335938 21.06835938 C-0.79910983 23.71212082 -0.90120233 26.3559711 -1 29 C-1.33 29 -1.66 29 -2 29 C-2.05794812 24.72922344 -2.09357874 20.45854764 -2.125 16.1875 C-2.14175781 14.97255859 -2.15851563 13.75761719 -2.17578125 12.50585938 C-2.18222656 11.34248047 -2.18867188 10.17910156 -2.1953125 8.98046875 C-2.20578613 7.90692139 -2.21625977 6.83337402 -2.22705078 5.72729492 C-2 3 -2 3 0 0 Z " fill="#8F8F8F" transform="translate(353,239)"/>
<path d="M0 0 C1.32 0 2.64 0 4 0 C4.33 1.32 4.66 2.64 5 4 C4.34 4 3.68 4 3 4 C2.67 4.66 2.34 5.32 2 6 C1.67 6.33 1.34 6.66 1 7 C0.01 7 -0.98 7 -2 7 C-2.33 5.35 -2.66 3.7 -3 2 C-2.01 2 -1.02 2 0 2 C0 1.34 0 0.68 0 0 Z " fill="#DDE2E0" transform="translate(367,275)"/>
<path d="M0 0 C0.99 0 1.98 0 3 0 C3.33 1.32 3.66 2.64 4 4 C3.01 4.495 3.01 4.495 2 5 C1.67 5.99 1.34 6.98 1 8 C0.01 8 -0.98 8 -2 8 C-2 7.34 -2 6.68 -2 6 C-2.66 5.67 -3.32 5.34 -4 5 C-3.34 4.67 -2.68 4.34 -2 4 C-0.86649466 1.98330173 -0.86649466 1.98330173 0 0 Z " fill="#D2D6D6" transform="translate(352,274)"/>
<path d="M0 0 C0.99 0.66 1.98 1.32 3 2 C3 2.66 3 3.32 3 4 C3.99 4 4.98 4 6 4 C6 4.66 6 5.32 6 6 C4.35 6.66 2.7 7.32 1 8 C0.67 6.35 0.34 4.7 0 3 C-0.99 3.33 -1.98 3.66 -3 4 C-3 3.34 -3 2.68 -3 2 C-2.01 1.34 -1.02 0.68 0 0 Z " fill="#CCCFCE" transform="translate(378,277)"/>
<path d="M0 0 C0 1.65 0 3.3 0 5 C-1.65 5.33 -3.3 5.66 -5 6 C-5.33 4.68 -5.66 3.36 -6 2 C-3 0 -3 0 0 0 Z " fill="#A4A6A5" transform="translate(328,274)"/>
<path d="M0 0 C0.33 0 0.66 0 1 0 C1 7.59 1 15.18 1 23 C-0.65 23.33 -2.3 23.66 -4 24 C-3.5155542 23.60578857 -3.0311084 23.21157715 -2.53198242 22.80541992 C-0.55813509 20.47926837 -0.57987084 19.1357377 -0.48828125 16.11328125 C-0.43510742 14.7065918 -0.43510742 14.7065918 -0.38085938 13.27148438 C-0.35830078 12.29501953 -0.33574219 11.31855469 -0.3125 10.3125 C-0.27833984 9.32443359 -0.24417969 8.33636719 -0.20898438 7.31835938 C-0.12649462 4.87901947 -0.05734932 2.44003937 0 0 Z " fill="#E3E3E3" transform="translate(350,245)"/>
<path d="M0 0 C0.33 0 0.66 0 1 0 C1.33 1.98 1.66 3.96 2 6 C3.32 5.34 4.64 4.68 6 4 C6.33 5.32 6.66 6.64 7 8 C2.25 9.125 2.25 9.125 0 8 C0 5.36 0 2.72 0 0 Z " fill="#D6D6D6" transform="translate(114,260)"/>
<path d="M0 0 C-0.99 0.495 -0.99 0.495 -2 1 C-2 3.97 -2 6.94 -2 10 C-2.33 10 -2.66 10 -3 10 C-3.33 7.36 -3.66 4.72 -4 2 C-5.65 2 -7.3 2 -9 2 C-9.33 1.34 -9.66 0.68 -10 0 C-6.30581799 -1.231394 -3.7943739 -0.64432764 0 0 Z " fill="#828585" transform="translate(360,282)"/>
<path d="M0 0 C0.99 0.66 1.98 1.32 3 2 C2.505 2.45375 2.01 2.9075 1.5 3.375 C-0.22609337 4.87635519 -0.22609337 4.87635519 0 7 C-2.375 6.75 -2.375 6.75 -5 6 C-6.3125 3.9375 -6.3125 3.9375 -7 2 C-6.01 1.67 -5.02 1.34 -4 1 C-3.34 1.66 -2.68 2.32 -2 3 C-1.34 2.01 -0.68 1.02 0 0 Z " fill="#8B908D" transform="translate(386,275)"/>
<path d="M0 0 C3.09537351 1.06737018 3.98455997 1.97518567 5.75 4.8125 C6.94728978 7.86558893 7.28472808 9.77308179 7 13 C4.21287908 11.60643954 3.73536671 9.83494327 2.375 7.0625 C1.92898437 6.16660156 1.48296875 5.27070313 1.0234375 4.34765625 C0 2 0 2 0 0 Z " fill="#B5B5B5" transform="translate(221,252)"/>
<path d="M0 0 C0.33 0.99 0.66 1.98 1 3 C3.01508358 3.73323796 3.01508358 3.73323796 5 4 C3.68 4 2.36 4 1 4 C1 4.66 1 5.32 1 6 C0.236875 5.835 -0.52625 5.67 -1.3125 5.5 C-4.03596236 4.90854604 -4.03596236 4.90854604 -7 5 C-6.34 3.68 -5.68 2.36 -5 1 C-2.525 1.99 -2.525 1.99 0 3 C0 2.01 0 1.02 0 0 Z " fill="#858887" transform="translate(366,271)"/>
<path d="M0 0 C0.66 0.33 1.32 0.66 2 1 C1.34 2.98 0.68 4.96 0 7 C-1.65 7.33 -3.3 7.66 -5 8 C-4.34 6.35 -3.68 4.7 -3 3 C-2.34 3 -1.68 3 -1 3 C-0.67 2.01 -0.34 1.02 0 0 Z " fill="#6B7373" transform="translate(349,275)"/>
<path d="M0 0 C0 2.97 0 5.94 0 9 C-0.33 9 -0.66 9 -1 9 C-1.33 6.69 -1.66 4.38 -2 2 C-2.99 1.67 -3.98 1.34 -5 1 C-5 1.66 -5 2.32 -5 3 C-5.66 3 -6.32 3 -7 3 C-7 2.01 -7 1.02 -7 0 C-4.3333581 -1.33332095 -2.83319697 -0.67102033 0 0 Z " fill="#ABABAB" transform="translate(300,229)"/>
<path d="M0 0 C0.99 0 1.98 0 3 0 C3 0.99 3 1.98 3 3 C2.34 3 1.68 3 1 3 C1.33 4.32 1.66 5.64 2 7 C0.68 7.33 -0.64 7.66 -2 8 C-2 4.79604584 -1.25664978 2.90600261 0 0 Z " fill="#696C6C" transform="translate(338,277)"/>
<path d="M0 0 C0.99 1.32 1.98 2.64 3 4 C2.34 5.32 1.68 6.64 1 8 C-0.32 7.34 -1.64 6.68 -3 6 C-3 5.34 -3 4.68 -3 4 C-2.34 4 -1.68 4 -1 4 C-0.67 2.68 -0.34 1.36 0 0 Z " fill="#717878" transform="translate(391,274)"/>
<path d="M0 0 C2.62113708 0 4.50935112 0.31292445 7 1 C7 1.99 7 2.98 7 4 C4.69 4 2.38 4 0 4 C0 2.68 0 1.36 0 0 Z " fill="#787B79" transform="translate(328,275)"/>
<path d="M0 0 C1.9375 0.3125 1.9375 0.3125 4 1 C4.33 1.99 4.66 2.98 5 4 C3.35 4.33 1.7 4.66 0 5 C0 3.35 0 1.7 0 0 Z " fill="#858C86" transform="translate(360,277)"/>
<path d="M0 0 C1.09658936 3.28976808 0.79953138 4.71303767 0 8 C-1.32 7.34 -2.64 6.68 -4 6 C-2.84826645 3.53199953 -1.95216435 1.95216435 0 0 Z " fill="#BBBBBB" transform="translate(234,253)"/>
<path d="M0 0 C3 1 3 1 4.6875 4.0625 C5.120625 5.031875 5.55375 6.00125 6 7 C5.01 8.485 5.01 8.485 4 10 C3.32845067 8.71086513 2.66291141 7.41859796 2 6.125 C1.62875 5.40570313 1.2575 4.68640625 0.875 3.9453125 C0 2 0 2 0 0 Z " fill="#B4B4B4" transform="translate(213,236)"/>
<path d="M0 0 C0.33 0 0.66 0 1 0 C1.04254356 1.99954746 1.04080783 4.00041636 1 6 C0 7 0 7 -2.5625 7.0625 C-3.7690625 7.0315625 -3.7690625 7.0315625 -5 7 C-5.33 6.34 -5.66 5.68 -6 5 C-2.25 3.875 -2.25 3.875 0 5 C0 3.35 0 1.7 0 0 Z " fill="#A0A0A0" transform="translate(171,217)"/>
<path d="M0 0 C1.33332095 2.6666419 0.67102033 4.16680303 0 7 C-1.32 7.33 -2.64 7.66 -4 8 C-4 7.01 -4 6.02 -4 5 C-3.34 4.67 -2.68 4.34 -2 4 C-0.86649466 1.98330173 -0.86649466 1.98330173 0 0 Z " fill="#ACB0B0" transform="translate(343,275)"/>
<path d="M0 0 C-3.96 1.98 -3.96 1.98 -8 4 C-8.66 3.34 -9.32 2.68 -10 2 C-4.5 -1.125 -4.5 -1.125 0 0 Z " fill="#ADADAD" transform="translate(363,229)"/>
</svg>
