<?xml version="1.0" encoding="UTF-8"?>
<svg version="1.1" xmlns="http://www.w3.org/2000/svg" width="500" height="257">
<path d="M0 0 C1.1446875 0.495 1.1446875 0.495 2.3125 1 C4.99069135 2.17436686 4.99069135 2.17436686 8 2 C8.90298828 1.51660156 8.90298828 1.51660156 9.82421875 1.0234375 C14.63192066 -1.237995 21.20920191 -0.91704733 26.19921875 0.72265625 C30.66628263 3.11607225 33.75108442 6.50216884 36 11 C36.39723553 15.09303958 36.51528371 19.20456743 36.6875 23.3125 C36.74744141 24.45396484 36.80738281 25.59542969 36.86914062 26.77148438 C36.91619141 27.87427734 36.96324219 28.97707031 37.01171875 30.11328125 C37.08072388 31.62595581 37.08072388 31.62595581 37.15112305 33.16918945 C36.990344 36.18087447 36.27271924 38.28447175 35 41 C32.03 40.505 32.03 40.505 29 40 C28.97494385 39.3294458 28.9498877 38.6588916 28.92407227 37.96801758 C28.80769199 34.9160041 28.68515652 31.86426742 28.5625 28.8125 C28.52318359 27.75740234 28.48386719 26.70230469 28.44335938 25.61523438 C28.40146484 24.59365234 28.35957031 23.57207031 28.31640625 22.51953125 C28.27974854 21.58214111 28.24309082 20.64475098 28.20532227 19.67895508 C27.92916441 14.48622888 27.92916441 14.48622888 25.3125 10.25 C22.38044074 8.6651031 20.34627989 8.13122666 17 8 C13.32519416 9.30096474 13.32519416 9.30096474 10 11 C9.01 11.33 8.02 11.66 7 12 C6.21226083 15.53501458 5.82504198 18.90249788 5.68359375 22.51953125 C5.64169922 23.54111328 5.59980469 24.56269531 5.55664062 25.61523438 C5.49766602 27.19788086 5.49766602 27.19788086 5.4375 28.8125 C5.39431641 29.88693359 5.35113281 30.96136719 5.30664062 32.06835938 C5.20089017 34.71212082 5.09879767 37.3559711 5 40 C-0.75 41.125 -0.75 41.125 -3 40 C-3.07412765 34.78559487 -3.12859104 29.57149607 -3.16479492 24.35668945 C-3.17988641 22.58254657 -3.20036191 20.80844102 -3.22631836 19.03442383 C-3.26268641 16.48509513 -3.27972238 13.93625941 -3.29296875 11.38671875 C-3.30845261 10.59287277 -3.32393646 9.79902679 -3.33988953 8.98112488 C-3.34158031 3.45538549 -3.34158031 3.45538549 -1.48168945 0.97583008 C-0.99273193 0.65380615 -0.50377441 0.33178223 0 0 Z " fill="#F8F8F8" transform="translate(347,105)"/>
<path d="M0 0 C2.25 0.125 2.25 0.125 5 1 C8.97023789 6.19931357 11.4363062 12.04172837 14.08789062 17.98632812 C14.42111328 18.71658203 14.75433594 19.44683594 15.09765625 20.19921875 C15.39164307 20.85752686 15.68562988 21.51583496 15.98852539 22.1940918 C17.08666557 24.15473454 18.3478276 25.48976782 20 27 C20.28198242 26.46109131 20.56396484 25.92218262 20.85449219 25.36694336 C22.15164958 22.88975519 23.45081084 20.41362315 24.75 17.9375 C25.1934375 17.08994141 25.636875 16.24238281 26.09375 15.36914062 C33.49401285 1.27599299 33.49401285 1.27599299 36.0625 -0.125 C38 0 38 0 39.75 1.4375 C40.1625 1.953125 40.575 2.46875 41 3 C39.21127475 7.57580879 37.17969187 12.01728468 35.12109375 16.4765625 C33.93154689 19.04505728 33.93154689 19.04505728 33 22 C32.34 22 31.68 22 31 22 C30.79375 22.9075 30.5875 23.815 30.375 24.75 C29.3025889 28.44639571 27.80715299 31.88587607 26.1875 35.375 C25.46626953 36.93347656 25.46626953 36.93347656 24.73046875 38.5234375 C23 41 23 41 20.48828125 42.0390625 C18 42 18 42 16.5 40.77880859 C14.82025269 38.78684263 13.70018995 36.81906001 12.51171875 34.5 C12.05506836 33.61763672 11.59841797 32.73527344 11.12792969 31.82617188 C10.41491699 30.4272168 10.41491699 30.4272168 9.6875 29 C8.70815944 27.09317014 7.72770049 25.18691425 6.74609375 23.28125 C6.04009033 21.91033203 6.04009033 21.91033203 5.31982422 20.51171875 C3.28928109 16.6474517 1.09230543 12.88841554 -1.171875 9.15625 C-2.23594231 6.38565965 -1.84203168 4.80677228 -1 2 C-0.67 1.34 -0.34 0.68 0 0 Z " fill="#F7F7F7" transform="translate(213,105)"/>
<path d="M0 0 C0.99 0.66 1.98 1.32 3 2 C2.67 3.98 2.34 5.96 2 8 C5.153368 8.70074844 7.72724974 9 11 9 C11 9.66 11 10.32 11 11 C11.94875 10.79375 12.8975 10.5875 13.875 10.375 C14.90625 10.25125 15.9375 10.1275 17 10 C17.66 10.66 18.32 11.32 19 12 C19.66 11.01 20.32 10.02 21 9 C24.125 8.3125 24.125 8.3125 27 8 C27.99 10.97 27.99 10.97 29 14 C23.85585338 17.58531431 19.16707595 18 13 18 C11.2984375 17.4740625 11.2984375 17.4740625 9.5625 16.9375 C5.97740216 15.9940532 4.4856253 16.1521452 1 17 C-0.33568021 16.67619874 -1.66923011 16.34342449 -3 16 C-4.34198878 16.29657211 -5.67747917 16.6260648 -7 17 C-6.98839844 17.63808594 -6.97679687 18.27617187 -6.96484375 18.93359375 C-6.95582031 19.75988281 -6.94679688 20.58617187 -6.9375 21.4375 C-6.92589844 22.26121094 -6.91429687 23.08492187 -6.90234375 23.93359375 C-7 26 -7 26 -8 27 C-9.66617115 27.04063832 -11.33388095 27.042721 -13 27 C-12.67 24.03 -12.34 21.06 -12 18 C-16.51830649 15.74084675 -19.25177201 15.97513495 -24 17 C-26.86673164 17.96026816 -26.86673164 17.96026816 -29 19 C-29.391875 18.525625 -29.78375 18.05125 -30.1875 17.5625 C-32.44966312 15.61235938 -34.04337034 15.22743305 -37 15 C-37.66 15.66 -38.32 16.32 -39 17 C-41.625 16.625 -41.625 16.625 -44 16 C-43.6875 13.125 -43.6875 13.125 -43 10 C-40 8 -40 8 -38.125 8.3125 C-37.42375 8.539375 -36.7225 8.76625 -36 9 C-35.21625 9.144375 -34.4325 9.28875 -33.625 9.4375 C-31 10 -31 10 -28 11.3125 C-27.01 11.539375 -26.02 11.76625 -25 12 C-23.31295807 10.69254251 -21.64639965 9.35827971 -20 8 C-17 8.3125 -17 8.3125 -14 9 C-13.0925 8.814375 -12.185 8.62875 -11.25 8.4375 C-10.5075 8.293125 -9.765 8.14875 -9 8 C-8.34 8.66 -7.68 9.32 -7 10 C-6.61908203 9.16855469 -6.61908203 9.16855469 -6.23046875 8.3203125 C-5.88628906 7.59585938 -5.54210937 6.87140625 -5.1875 6.125 C-4.85105469 5.40570313 -4.51460938 4.68640625 -4.16796875 3.9453125 C-3 2 -3 2 0 0 Z M-3 9 C-3.33 9.66 -3.66 10.32 -4 11 C-3.01 11.33 -2.02 11.66 -1 12 C-0.34 11.01 0.32 10.02 1 9 C-0.32 9 -1.64 9 -3 9 Z " fill="#EBEBEB" transform="translate(365,143)"/>
<path d="M0 0 C2.6875 0.875 2.6875 0.875 5 2 C5.05058729 8.94170022 5.08568579 15.88335315 5.10986328 22.82519531 C5.11993924 25.18816911 5.13360029 27.55113039 5.15087891 29.9140625 C5.17505724 33.30471888 5.18646699 36.69521084 5.1953125 40.0859375 C5.20563507 41.14743011 5.21595764 42.20892273 5.22659302 43.30258179 C5.22674408 44.28344757 5.22689514 45.26431335 5.22705078 46.27490234 C5.231492 47.14094086 5.23593323 48.00697937 5.24050903 48.89926147 C5 51 5 51 3 53 C-0.125 52.625 -0.125 52.625 -3 52 C-3.07587748 44.91592242 -3.12852671 37.83194906 -3.16479492 30.74755859 C-3.17990945 28.33606043 -3.20040153 25.92458986 -3.22631836 23.51318359 C-3.26258425 20.05299072 -3.27969956 16.59316029 -3.29296875 13.1328125 C-3.30845261 12.04944611 -3.32393646 10.96607971 -3.33988953 9.84988403 C-3.34011612 8.8489975 -3.34034271 7.84811096 -3.34057617 6.81689453 C-3.34723801 5.93309113 -3.35389984 5.04928772 -3.36076355 4.13870239 C-3.24171158 3.4329306 -3.12265961 2.72715881 -3 2 C-2.01 1.34 -1.02 0.68 0 0 Z " fill="#FCFCFC" transform="translate(117,93)"/>
<path d="M0 0 C1.875 0.75 1.875 0.75 2.875 1.75 C2.97603255 4.54993597 3.01470088 7.32468644 3.0078125 10.125 C3.00876923 10.96466309 3.00972595 11.80432617 3.01071167 12.66943359 C3.01139348 14.44824295 3.00953917 16.22705477 3.00537109 18.00585938 C3.00002283 20.73833776 3.00531605 23.47065176 3.01171875 26.203125 C3.01105797 27.9270837 3.00977681 29.65104229 3.0078125 31.375 C3.00983673 32.19790527 3.01186096 33.02081055 3.01394653 33.86865234 C2.98995054 39.63504946 2.98995054 39.63504946 1.875 40.75 C-0.5625 40.9375 -0.5625 40.9375 -3.125 40.75 C-5.66194403 38.21305597 -5.38212283 36.57368559 -5.42854309 33.11158752 C-5.42763168 32.3438652 -5.42672028 31.57614288 -5.42578125 30.78515625 C-5.43006638 29.99604355 -5.4343515 29.20693085 -5.43876648 28.39390564 C-5.44451363 26.72363241 -5.44500721 25.05333414 -5.44067383 23.38305664 C-5.43751655 20.82590028 -5.46095751 18.2699036 -5.48632812 15.71289062 C-5.48860134 14.0911473 -5.48930451 12.46940085 -5.48828125 10.84765625 C-5.497491 10.08195816 -5.50670074 9.31626007 -5.51618958 8.52735901 C-5.47017337 3.2520869 -5.47017337 3.2520869 -3.73510742 0.72827148 C-2.125 -0.25 -2.125 -0.25 0 0 Z " fill="#F9F9F9" transform="translate(169.125,105.25)"/>
<path d="M0 0 C0.02464775 5.53588533 0.04283496 11.071739 0.05493164 16.60766602 C0.05997244 18.4924373 0.06680498 20.37720465 0.07543945 22.26196289 C0.08751617 24.96501636 0.09323068 27.66801831 0.09765625 30.37109375 C0.10281754 31.21900986 0.10797882 32.06692596 0.11329651 32.9405365 C0.11349195 34.96071068 0.06206211 36.98077934 0 39 C-1 40 -1 40 -3.5625 40.0625 C-4.366875 40.041875 -5.17125 40.02125 -6 40 C-11.87415829 30.08590675 -7.53691276 11.14236781 -7 0 C-4.3333581 -1.33332095 -2.83319697 -0.67102033 0 0 Z " fill="#F7F7F7" transform="translate(300,106)"/>
<path d="M0 0 C0.99 0.66 1.98 1.32 3 2 C2.67 3.98 2.34 5.96 2 8 C5.153368 8.70074844 7.72724974 9 11 9 C11 9.66 11 10.32 11 11 C11.94875 10.79375 12.8975 10.5875 13.875 10.375 C14.90625 10.25125 15.9375 10.1275 17 10 C17.66 10.66 18.32 11.32 19 12 C19.66 11.01 20.32 10.02 21 9 C24.125 8.3125 24.125 8.3125 27 8 C27.66 9.98 28.32 11.96 29 14 C23.85585338 17.58531431 19.16707595 18 13 18 C11.2984375 17.4740625 11.2984375 17.4740625 9.5625 16.9375 C5.97740216 15.9940532 4.4856253 16.1521452 1 17 C-0.33783393 16.68521554 -1.67203709 16.35412344 -3 16 C-3.99 16.33 -4.98 16.66 -6 17 C-7.5 15.8125 -7.5 15.8125 -9 14 C-9.1875 11.3125 -9.1875 11.3125 -9 9 C-8.01 9.495 -8.01 9.495 -7 10 C-6.74605469 9.44570312 -6.49210937 8.89140625 -6.23046875 8.3203125 C-5.88628906 7.59585938 -5.54210937 6.87140625 -5.1875 6.125 C-4.85105469 5.40570313 -4.51460938 4.68640625 -4.16796875 3.9453125 C-3 2 -3 2 0 0 Z M-3 9 C-3.33 9.66 -3.66 10.32 -4 11 C-3.01 11.33 -2.02 11.66 -1 12 C-0.34 11.01 0.32 10.02 1 9 C-0.32 9 -1.64 9 -3 9 Z " fill="#F6F7F7" transform="translate(365,143)"/>
<path d="M0 0 C1.32 0.33 2.64 0.66 4 1 C4.05058729 7.94170022 4.08568579 14.88335315 4.10986328 21.82519531 C4.11993924 24.18816911 4.13360029 26.55113039 4.15087891 28.9140625 C4.17505724 32.30471888 4.18646699 35.69521084 4.1953125 39.0859375 C4.20563507 40.14743011 4.21595764 41.20892273 4.22659302 42.30258179 C4.22674408 43.28344757 4.22689514 44.26431335 4.22705078 45.27490234 C4.231492 46.14094086 4.23593323 47.00697937 4.24050903 47.89926147 C4 50 4 50 2 52 C0.68 52 -0.64 52 -2 52 C-1.67 50.68 -1.34 49.36 -1 48 C-0.34 48 0.32 48 1 48 C0.67 32.16 0.34 16.32 0 0 Z " fill="#F3F3F3" transform="translate(118,94)"/>
<path d="M0 0 C1.0209375 0.309375 1.0209375 0.309375 2.0625 0.625 C3.3825 0.625 4.7025 0.625 6.0625 0.625 C6.0625 1.615 6.0625 2.605 6.0625 3.625 C7.7125 3.955 9.3625 4.285 11.0625 4.625 C10.7325 6.275 10.4025 7.925 10.0625 9.625 C7.0625 8.625 7.0625 8.625 6.0625 7.625 C3.62990432 6.87180201 3.62990432 6.87180201 1.0625 6.625 C0.4025 7.285 -0.2575 7.945 -0.9375 8.625 C-3.5625 8.25 -3.5625 8.25 -5.9375 7.625 C-5.625 4.75 -5.625 4.75 -4.9375 1.625 C-1.9375 -0.375 -1.9375 -0.375 0 0 Z " fill="#EFF0F0" transform="translate(326.9375,151.375)"/>
<path d="M0 0 C0.99 0.226875 1.98 0.45375 3 0.6875 C5.76864953 0.31891012 5.76864953 0.31891012 8 -0.3125 C3.25 3.6875 3.25 3.6875 1 3.6875 C1 5.0075 1 6.3275 1 7.6875 C-0.8253125 7.873125 -0.8253125 7.873125 -2.6875 8.0625 C-6.06479059 8.47641306 -8.89756695 9.23323451 -12 10.6875 C-11.34 8.7075 -10.68 6.7275 -10 4.6875 C-11.32 4.3575 -12.64 4.0275 -14 3.6875 C-13.67 3.0275 -13.34 2.3675 -13 1.6875 C-10.525 2.6775 -10.525 2.6775 -8 3.6875 C-7.29875 3.006875 -6.5975 2.32625 -5.875 1.625 C-3 -0.3125 -3 -0.3125 0 0 Z " fill="#F6F7F7" transform="translate(348,151.3125)"/>
<path d="M0 0 C0.04254356 1.99954746 0.04080783 4.00041636 0 6 C-1 7 -1 7 -3.4375 7.1875 C-6 7 -6 7 -8 5 C-7.75 2.4375 -7.75 2.4375 -7 0 C-4.3333581 -1.33332095 -2.83319697 -0.67102033 0 0 Z " fill="#F8F8F8" transform="translate(172,94)"/>
<path d="M0 0 C0.33 0 0.66 0 1 0 C1 7.59 1 15.18 1 23 C-0.65 23.33 -2.3 23.66 -4 24 C-3.01 22.515 -3.01 22.515 -2 21 C-1.6509402 18.79458647 -1.6509402 18.79458647 -1.62109375 16.3671875 C-1.58693359 15.47902344 -1.55277344 14.59085938 -1.51757812 13.67578125 C-1.49115234 12.75152344 -1.46472656 11.82726562 -1.4375 10.875 C-1.37782118 9.03892384 -1.31423412 7.2029691 -1.24609375 5.3671875 C-1.22216553 4.55362793 -1.1982373 3.74006836 -1.17358398 2.90185547 C-1 1 -1 1 0 0 Z " fill="#EFEFEF" transform="translate(351,122)"/>
<path d="M0 0 C0 2.31 0 4.62 0 7 C-1.99954746 7.04254356 -4.00041636 7.04080783 -6 7 C-7 6 -7 6 -7.0625 2.9375 C-7.041875 1.968125 -7.02125 0.99875 -7 0 C-4.3333581 -1.33332095 -2.83319697 -0.67102033 0 0 Z " fill="#F5F5F5" transform="translate(300,94)"/>
<path d="M0 0 C1.65 0.33 3.3 0.66 5 1 C4.67 2.98 4.34 4.96 4 7 C2.35 7.33 0.7 7.66 -1 8 C-1.625 5.6875 -1.625 5.6875 -2 3 C-1.34 2.01 -0.68 1.02 0 0 Z " fill="#E6E7E7" transform="translate(323,152)"/>
<path d="M0 0 C0.5625 1.9375 0.5625 1.9375 1 4 C0 5 0 5 -2.5625 5.0625 C-3.7690625 5.0315625 -3.7690625 5.0315625 -5 5 C-4.67 3.68 -4.34 2.36 -4 1 C-3.01 1 -2.02 1 -1 1 C-0.67 0.67 -0.34 0.34 0 0 Z " fill="#EEEEEE" transform="translate(171,96)"/>
<path d="M0 0 C2.31 0 4.62 0 7 0 C6.01 0.495 6.01 0.495 5 1 C5 2.65 5 4.3 5 6 C4.34 5.67 3.68 5.34 3 5 C3 4.34 3 3.68 3 3 C2.01 2.67 1.02 2.34 0 2 C0 1.34 0 0.68 0 0 Z " fill="#F9F9F9" transform="translate(350,158)"/>
</svg>
