<?xml version="1.0" encoding="UTF-8"?>
<svg version="1.1" xmlns="http://www.w3.org/2000/svg" width="640" height="640">
<path d="M0 0 C211.2 0 422.4 0 640 0 C640 211.2 640 422.4 640 640 C428.8 640 217.6 640 0 640 C0 428.8 0 217.6 0 0 Z " fill="#141414" transform="translate(0,0)"/>
<path d="M0 0 C5.22565336 3.60515458 8.50646595 7.1063096 11 13 C11.37231445 16.58691406 11.37231445 16.58691406 11.36328125 20.515625 C11.36402901 21.56118561 11.36402901 21.56118561 11.36479187 22.62786865 C11.36246508 24.09015783 11.35281954 25.55245207 11.33618164 27.01464844 C11.31242031 29.2575222 11.31565136 31.4992184 11.32226562 33.7421875 C11.27932187 44.72067813 11.27932187 44.72067813 9 47 C6.375 47.125 6.375 47.125 4 47 C2.51557442 44.03114885 2.87175799 41.32518646 2.859375 38.015625 C2.84103955 36.59112994 2.82146855 35.16665035 2.80078125 33.7421875 C2.77187696 31.49941043 2.75000167 29.25762352 2.74951172 27.01464844 C2.74615984 24.84741678 2.71150877 22.68245906 2.671875 20.515625 C2.6625293 19.21915039 2.65318359 17.92267578 2.64355469 16.58691406 C1.80360922 11.90539708 0.34622888 10.32389587 -3 7 C-7.42891239 4.83475394 -12.129999 4.1244942 -17 5 C-21.99809999 7.03558981 -25.58164841 9.77870786 -28.19677734 14.61206055 C-30.04901889 20.11867895 -29.64908355 26.11951667 -29.6875 31.875 C-29.72570516 34.51841852 -29.77472466 37.16143564 -29.82421875 39.8046875 C-29.83541748 40.96983887 -29.84661621 42.13499023 -29.8581543 43.33544922 C-30 46 -30 46 -31 47 C-33.5 47.125 -33.5 47.125 -36 47 C-37 46 -37 46 -37.12025452 44.09544373 C-37.11803391 43.26271439 -37.11581329 42.42998505 -37.11352539 41.57202148 C-37.11344986 40.63112167 -37.11337433 39.69022186 -37.11329651 38.72080994 C-37.10813522 37.69790359 -37.10297394 36.67499725 -37.09765625 35.62109375 C-37.0962413 34.57929459 -37.09482635 33.53749542 -37.09336853 32.46412659 C-37.0877508 29.12188906 -37.0751953 25.77971743 -37.0625 22.4375 C-37.05748728 20.17773534 -37.05292398 17.91796963 -37.04882812 15.65820312 C-37.03777561 10.10544609 -37.02102024 4.55272775 -37 -1 C-34.625 -1.625 -34.625 -1.625 -32 -2 C-29.64046906 0.35953094 -29.50858587 1.77895617 -29 5 C-28.319375 4.236875 -27.63875 3.47375 -26.9375 2.6875 C-18.95847117 -4.61246254 -9.32681063 -4.61465892 0 0 Z " fill="#E6E6E6" transform="translate(479,296)"/>
<path d="M0 0 C4.40940598 1.76124633 5.54692478 5.46715065 7.55078125 9.59375 C7.9772998 10.43784424 8.40381836 11.28193848 8.84326172 12.15161133 C10.16550958 14.7879936 11.45715622 17.437163 12.73828125 20.09375 C13.35050537 21.3629126 13.35050537 21.3629126 13.97509766 22.65771484 C16.27348109 27.44986789 18.52364 32.26236782 20.73828125 37.09375 C23.40269861 34.73269013 24.73539162 32.37299875 26.2265625 29.15625 C26.68611328 28.17785156 27.14566406 27.19945312 27.61914062 26.19140625 C28.32780273 24.65806641 28.32780273 24.65806641 29.05078125 23.09375 C32.68875617 15.26828786 36.51707921 7.62281083 40.73828125 0.09375 C42.38828125 0.09375 44.03828125 0.09375 45.73828125 0.09375 C46.55373981 2.92796572 46.96762221 4.52442113 45.84765625 7.3046875 C45.17476563 8.37589844 45.17476563 8.37589844 44.48828125 9.46875 C42.53363312 12.6306808 40.97499079 15.78753814 39.54199219 19.21972656 C35.89958973 27.71276462 31.47015544 35.95614909 26.98828125 44.03125 C26.4571875 44.98902344 25.92609375 45.94679688 25.37890625 46.93359375 C23.73828125 49.09375 23.73828125 49.09375 21.53515625 49.91015625 C20.9421875 49.97074219 20.34921875 50.03132813 19.73828125 50.09375 C15.94690841 44.40669074 12.90501169 38.50709861 9.90356445 32.38305664 C7.01123008 26.52847228 3.82508873 20.89559713 0.5 15.27734375 C-4.40134028 6.42015455 -4.40134028 6.42015455 -4.01171875 2.71875 C-2.89304123 0.2949487 -2.76182079 0.11447962 0 0 Z " fill="#EEEEEE" transform="translate(276.26171875,293.90625)"/>
<path d="M0 0 C5.75 -0.125 5.75 -0.125 8 1 C8.04628946 8.91885578 8.08185182 16.83765526 8.10362434 24.75661278 C8.11407274 28.4334935 8.12825102 32.11028183 8.15087891 35.78710938 C8.17256991 39.33379655 8.18456067 42.88039472 8.18975449 46.4271431 C8.193457 47.78197252 8.20068689 49.13679694 8.21146011 50.49158859 C8.22592448 52.38545757 8.22681649 54.27941564 8.22705078 56.17333984 C8.231492 57.25255707 8.23593323 58.33177429 8.24050903 59.44369507 C8 62 8 62 6 64 C3.375 64.125 3.375 64.125 1 64 C-0.36239076 61.27521848 -0.11969958 59.13159145 -0.11352539 56.08154297 C-0.11344986 54.84040741 -0.11337433 53.59927185 -0.11329651 52.32052612 C-0.1081895 50.96107951 -0.1029735 49.60163331 -0.09765625 48.2421875 C-0.09579142 46.85499116 -0.09436782 45.46779416 -0.09336853 44.08059692 C-0.08954848 40.42765488 -0.07972255 36.77475252 -0.06866455 33.12182617 C-0.05843944 29.39502499 -0.05386855 25.66821741 -0.04882812 21.94140625 C-0.03809983 14.62758606 -0.02102954 7.31379859 0 0 Z " fill="#EEEEEE" transform="translate(147,279)"/>
<path d="M0 0 C1.67542976 0.28604898 3.34385343 0.61781233 5 1 C5.66 2.98 6.32 4.96 7 7 C7.99 6.67 8.98 6.34 10 6 C10 9.5895545 9.82677875 10.72745741 8.5390625 13.8125 C6.24842651 20.38024596 6.47036731 27.11311768 6.375 34 C6.32698175 36.62520813 6.26980623 39.24998962 6.2109375 41.875 C6.19337402 43.02742188 6.17581055 44.17984375 6.15771484 45.3671875 C6 48 6 48 5 49 C2.5 49.125 2.5 49.125 0 49 C-1.58681989 47.41318011 -1.12728536 45.78751654 -1.12939453 43.58789062 C-1.13412277 42.18138245 -1.13412277 42.18138245 -1.13894653 40.74645996 C-1.1369223 39.72669067 -1.13489807 38.70692139 -1.1328125 37.65625 C-1.13376923 36.61682251 -1.13472595 35.57739502 -1.13571167 34.50646973 C-1.13639363 32.30395446 -1.13453827 30.10143721 -1.13037109 27.89892578 C-1.12502308 24.51460281 -1.13031559 21.13041256 -1.13671875 17.74609375 C-1.13605797 15.61197887 -1.13477681 13.47786408 -1.1328125 11.34375 C-1.13483673 10.32398071 -1.13686096 9.30421143 -1.13894653 8.25354004 C-1.13579437 7.31586792 -1.13264221 6.3781958 -1.12939453 5.41210938 C-1.12859894 4.58239624 -1.12780334 3.75268311 -1.12698364 2.89782715 C-1 1 -1 1 0 0 Z " fill="#F3F3F3" transform="translate(443,294)"/>
<path d="M0 0 C0.02526945 6.6752034 0.04283268 13.35039457 0.05493164 20.02563477 C0.05997325 22.29842591 0.06680637 24.5712138 0.07543945 26.84399414 C0.08751261 30.10303551 0.09322987 33.36203417 0.09765625 36.62109375 C0.10281754 37.64400009 0.10797882 38.66690643 0.11329651 39.72080994 C0.11337204 40.66170975 0.11344757 41.60260956 0.11352539 42.57202148 C0.115746 43.40475082 0.11796661 44.23748016 0.12025452 45.09544373 C0 47 0 47 -1 48 C-3.5 48.125 -3.5 48.125 -6 48 C-7 47 -7 47 -7.12025452 45.09544373 C-7.11803391 44.26271439 -7.11581329 43.42998505 -7.11352539 42.57202148 C-7.11344986 41.63112167 -7.11337433 40.69022186 -7.11329651 39.72080994 C-7.10813522 38.69790359 -7.10297394 37.67499725 -7.09765625 36.62109375 C-7.0962413 35.57929459 -7.09482635 34.53749542 -7.09336853 33.46412659 C-7.0877508 30.12188906 -7.0751953 26.77971743 -7.0625 23.4375 C-7.05748728 21.17773534 -7.05292398 18.91796963 -7.04882812 16.65820312 C-7.03777561 11.10544609 -7.02102024 5.55272775 -7 0 C-4.3333581 -1.33332095 -2.83319697 -0.67102033 0 0 Z " fill="#ECECEC" transform="translate(383,295)"/>
<path d="M0 0 C2.625 0.375 2.625 0.375 5 1 C5.02526945 7.6752034 5.04283268 14.35039457 5.05493164 21.02563477 C5.05997325 23.29842591 5.06680637 25.5712138 5.07543945 27.84399414 C5.08751261 31.10303551 5.09322987 34.36203417 5.09765625 37.62109375 C5.10281754 38.64400009 5.10797882 39.66690643 5.11329651 40.72080994 C5.11337204 41.66170975 5.11344757 42.60260956 5.11352539 43.57202148 C5.115746 44.40475082 5.11796661 45.23748016 5.12025452 46.09544373 C5 48 5 48 4 49 C1.5 49.125 1.5 49.125 -1 49 C-2.5696989 47.4303011 -2.13499102 45.87559822 -2.14526367 43.69555664 C-2.15164352 42.78113297 -2.15802338 41.86670929 -2.16459656 40.92457581 C-2.16570938 39.92981735 -2.1668222 38.9350589 -2.16796875 37.91015625 C-2.17129715 36.89529648 -2.17462555 35.88043671 -2.17805481 34.83482361 C-2.1831285 32.6835882 -2.185463 30.5323449 -2.18530273 28.38110352 C-2.18748834 25.08010964 -2.20563707 21.77945025 -2.22460938 18.47851562 C-2.22754331 16.39323032 -2.2295281 14.30794341 -2.23046875 12.22265625 C-2.23765427 11.22992203 -2.24483978 10.23718781 -2.25224304 9.21437073 C-2.2476281 7.83800697 -2.2476281 7.83800697 -2.24291992 6.43383789 C-2.24434494 5.62411026 -2.24576996 4.81438263 -2.24723816 3.9801178 C-2 2 -2 2 0 0 Z " fill="#EFEFEF" transform="translate(214,294)"/>
<path d="M0 0 C0 2.64 0 5.28 0 8 C-0.99 8 -1.98 8 -3 8 C-3.33 7.01 -3.66 6.02 -4 5 C-4.67154933 6.28913487 -5.33708859 7.58140204 -6 8.875 C-6.556875 9.95394531 -6.556875 9.95394531 -7.125 11.0546875 C-8.13673746 12.94848977 -8.13673746 12.94848977 -8 15 C-7.13375 14.505 -7.13375 14.505 -6.25 14 C-4 13 -4 13 0 13 C0.66 11.68 1.32 10.36 2 9 C2.99 9 3.98 9 5 9 C5.3125 11.6875 5.3125 11.6875 5 15 C2.5625 17.625 2.5625 17.625 0 20 C-0.86119134 22.17346568 -0.86119134 22.17346568 -1 24 C-3.31 23.67 -5.62 23.34 -8 23 C-7.67 22.01 -7.34 21.02 -7 20 C-8.32 19.67 -9.64 19.34 -11 19 C-10.95875 20.2375 -10.9175 21.475 -10.875 22.75 C-10.86341709 26.01637962 -11.1431298 28.2146947 -13 31 C-13.99 31 -14.98 31 -16 31 C-15.34 28.03 -14.68 25.06 -14 22 C-14.66 22 -15.32 22 -16 22 C-15.67 21.01 -15.34 20.02 -15 19 C-14.34 18.67 -13.68 18.34 -13 18 C-13.33 17.01 -13.66 16.02 -14 15 C-14.433125 15.495 -14.86625 15.99 -15.3125 16.5 C-17 18 -17 18 -20 18 C-20.75 15.75 -20.75 15.75 -21 13 C-19.375 10.6875 -19.375 10.6875 -17 9 C-14.3125 8.6875 -14.3125 8.6875 -12 9 C-11.67 9.33 -11.34 9.66 -11 10 C-10.67 8.68 -10.34 7.36 -10 6 C-9.34 6 -8.68 6 -8 6 C-7.67 5.01 -7.34 4.02 -7 3 C-4.41927097 0.67734388 -3.54823932 0 0 0 Z " fill="#313131" transform="translate(469,343)"/>
<path d="M0 0 C1.65 0 3.3 0 5 0 C5.81545856 2.83421572 6.22934096 4.43067113 5.109375 7.2109375 C4.43648438 8.28214844 4.43648438 8.28214844 3.75 9.375 C2.09581206 12.12588712 0.58328508 14.77476038 -0.625 17.75 C-3.16814159 23.76106195 -3.16814159 23.76106195 -5 26 C-8.0625 26.25 -8.0625 26.25 -11 26 C-11.66 26.33 -12.32 26.66 -13 27 C-11.30916337 20.94965688 -8.3171076 15.63585129 -5.375 10.125 C-4.6015625 8.66320312 -4.6015625 8.66320312 -3.8125 7.171875 C-2.54571714 4.77906294 -1.27478682 2.38855464 0 0 Z " fill="#ECECEC" transform="translate(317,294)"/>
<path d="M0 0 C1.32 0.66 2.64 1.32 4 2 C4 2.66 4 3.32 4 4 C5.32 4 6.64 4 8 4 C8 3.34 8 2.68 8 2 C8.66 2 9.32 2 10 2 C10 2.99 10 3.98 10 5 C11.98 5 13.96 5 16 5 C16 6.32 16 7.64 16 9 C17.29243468 7.8758824 18.58392075 6.75067408 19.875 5.625 C20.59429687 4.99851562 21.31359375 4.37203125 22.0546875 3.7265625 C23.4076598 2.52573166 24.7208345 1.2791655 26 0 C28.125 0.375 28.125 0.375 30 1 C28 4 28 4 25 5 C24.67 5.66 24.34 6.32 24 7 C23.01 7 22.02 7 21 7 C21 7.66 21 8.32 21 9 C17.77208445 11.1519437 16.71599191 11.20086443 13 11 C13 9.68 13 8.36 13 7 C10.69 7.33 8.38 7.66 6 8 C6 7.34 6 6.68 6 6 C5.2575 6.309375 4.515 6.61875 3.75 6.9375 C1.49307824 7.8094925 -0.6450153 8.47667007 -3 9 C-3.36923077 3.46153846 -3.36923077 3.46153846 -1.5 1.125 C-1.005 0.75375 -0.51 0.3825 0 0 Z " fill="#6D6D6D" transform="translate(416,352)"/>
<path d="M0 0 C0.66 0 1.32 0 2 0 C2 20.13 2 40.26 2 61 C1.01 61 0.02 61 -1 61 C-0.67 40.87 -0.34 20.74 0 0 Z " fill="#B2B2B2" transform="translate(153,280)"/>
<path d="M0 0 C0.99 0 1.98 0 3 0 C3.3125 2.6875 3.3125 2.6875 3 6 C0.5625 8.625 0.5625 8.625 -2 11 C-2.86119134 13.17346568 -2.86119134 13.17346568 -3 15 C-5.31 14.67 -7.62 14.34 -10 14 C-9.67 13.01 -9.34 12.02 -9 11 C-10.32 10.34 -11.64 9.68 -13 9 C-10.21755518 6.46306502 -8.58636717 5.09197916 -4.8125 4.5 C-3.4203125 4.2525 -3.4203125 4.2525 -2 4 C-0.56362302 2.04836882 -0.56362302 2.04836882 0 0 Z " fill="#191919" transform="translate(471,352)"/>
<path d="M0 0 C2.31 0.33 4.62 0.66 7 1 C7 1.66 7 2.32 7 3 C7.66 3.33 8.32 3.66 9 4 C8.67 4.66 8.34 5.32 8 6 C5.03 5.505 5.03 5.505 2 5 C2 24.47 2 43.94 2 64 C1.67 64 1.34 64 1 64 C1 44.2 1 24.4 1 4 C0.34 3.67 -0.32 3.34 -1 3 C-0.67 2.01 -0.34 1.02 0 0 Z " fill="#303030" transform="translate(145,274)"/>
<path d="M0 0 C-0.8125 1.9375 -0.8125 1.9375 -2 4 C-2.99 4.33 -3.98 4.66 -5 5 C-6.35432675 6.31200404 -7.68733482 7.64631404 -9 9 C-12 11 -12 11 -16 11 C-16 9.35 -16 7.7 -16 6 C-16.598125 6.33 -17.19625 6.66 -17.8125 7 C-20 8 -20 8 -23 8 C-23 7.01 -23 6.02 -23 5 C-23.66 4.67 -24.32 4.34 -25 4 C-24.01 4 -23.02 4 -22 4 C-22 3.34 -22 2.68 -22 2 C-21.34 2 -20.68 2 -20 2 C-20 2.99 -20 3.98 -20 5 C-18.02 4.67 -16.04 4.34 -14 4 C-13.67 5.65 -13.34 7.3 -13 9 C-12.39671875 8.3503125 -11.7934375 7.700625 -11.171875 7.03125 C-10.37265625 6.1959375 -9.5734375 5.360625 -8.75 4.5 C-7.96109375 3.6646875 -7.1721875 2.829375 -6.359375 1.96875 C-4 0 -4 0 0 0 Z " fill="#717171" transform="translate(501,352)"/>
<path d="M0 0 C0.66 1.32 1.32 2.64 2 4 C1.01 4.495 1.01 4.495 0 5 C-0.33 5.99 -0.66 6.98 -1 8 C-2.32 8 -3.64 8 -5 8 C-5 8.99 -5 9.98 -5 11 C-4.34 11.33 -3.68 11.66 -3 12 C-4.98 12 -6.96 12 -9 12 C-8.67 10.68 -8.34 9.36 -8 8 C-8.66 7.67 -9.32 7.34 -10 7 C-9.67 6.34 -9.34 5.68 -9 5 C-8.34 5 -7.68 5 -7 5 C-6.67 4.01 -6.34 3.02 -6 2 C-3.85412616 0.684787 -2.52986895 0 0 0 Z " fill="#181818" transform="translate(502,354)"/>
<path d="M0 0 C1.31223496 3.93670488 0.24296256 6.12488144 -1 10 C-1.66 10 -2.32 10 -3 10 C-2.97679687 10.60328125 -2.95359375 11.2065625 -2.9296875 11.828125 C-2.91164063 12.62734375 -2.89359375 13.4265625 -2.875 14.25 C-2.85179687 15.03890625 -2.82859375 15.8278125 -2.8046875 16.640625 C-3.0171622 19.20731941 -3.71345895 20.7916067 -5 23 C-5.99 23 -6.98 23 -8 23 C-7.34 20.03 -6.68 17.06 -6 14 C-6.66 14 -7.32 14 -8 14 C-7 11 -7 11 -4 9 C-4 7.68 -4 6.36 -4 5 C-2.5625 3.375 -2.5625 3.375 -1 2 C-0.67 1.34 -0.34 0.68 0 0 Z " fill="#858585" transform="translate(461,351)"/>
<path d="M0 0 C0.99 0 1.98 0 3 0 C3.36923077 5.53846154 3.36923077 5.53846154 1.5 7.875 C1.005 8.24625 0.51 8.6175 0 9 C-0.99 8.67 -1.98 8.34 -3 8 C-3 7.01 -3 6.02 -3 5 C-3.598125 5.350625 -4.19625 5.70125 -4.8125 6.0625 C-7 7 -7 7 -10 6 C-6.91190305 4.23537317 -5.76687864 4 -2 4 C-1.34 2.68 -0.68 1.36 0 0 Z " fill="#5E5E5E" transform="translate(471,352)"/>
<path d="M0 0 C2.24715161 0.37181132 4.49749604 0.72462441 6.75 1.0625 C8.50570313 1.32740234 8.50570313 1.32740234 10.296875 1.59765625 C11.63492187 1.79681641 11.63492187 1.79681641 13 2 C13.33 2.99 13.66 3.98 14 5 C13.443125 4.855625 12.88625 4.71125 12.3125 4.5625 C4.92702283 2.76603258 -1.47019779 2.49403956 -9 4 C-9 2.68 -9 1.36 -9 0 C-5.4964327 -0.87589183 -3.44036938 -0.90787525 0 0 Z " fill="#333333" transform="translate(465,291)"/>
<path d="M0 0 C1.4540625 0.0309375 1.4540625 0.0309375 2.9375 0.0625 C3.5625 2.4375 3.5625 2.4375 3.9375 5.0625 C3.2775 5.7225 2.6175 6.3825 1.9375 7.0625 C-0.6875 6.6875 -0.6875 6.6875 -3.0625 6.0625 C-3.44468767 4.40635343 -3.77645102 2.73792976 -4.0625 1.0625 C-3.0625 0.0625 -3.0625 0.0625 0 0 Z " fill="#D1D1D1" transform="translate(380.0625,278.9375)"/>
<path d="M0 0 C0.99 0.33 1.98 0.66 3 1 C3.36458333 5.49652778 3.36458333 5.49652778 1.6875 7.8125 C0 9 0 9 -3 9 C-3.75 6.75 -3.75 6.75 -4 4 C-2.0625 1.6875 -2.0625 1.6875 0 0 Z " fill="#7B7B7B" transform="translate(452,352)"/>
<path d="M0 0 C1.98 0 3.96 0 6 0 C6 1.98 6 3.96 6 6 C3.625 6.625 3.625 6.625 1 7 C0.34 6.34 -0.32 5.68 -1 5 C-0.625 2.375 -0.625 2.375 0 0 Z " fill="#DDDDDD" transform="translate(213,279)"/>
<path d="M0 0 C0.33 0 0.66 0 1 0 C0.938125 0.928125 0.87625 1.85625 0.8125 2.8125 C0.66522291 6.32958675 0.66522291 6.32958675 4 9 C-0.455 10.485 -0.455 10.485 -5 12 C-4.42365861 7.24518354 -2.44931479 4.02951788 0 0 Z " fill="#1B1B1B" transform="translate(465,347)"/>
<path d="M0 0 C1.65 0 3.3 0 5 0 C5.625 2.375 5.625 2.375 6 5 C5.34 5.66 4.68 6.32 4 7 C3.67 6.01 3.34 5.02 3 4 C-0.99996286 5.33332095 -1.83782337 7.4957827 -4 11 C-4.33 10.34 -4.66 9.68 -5 9 C-4.00390625 6.8359375 -4.00390625 6.8359375 -2.5625 4.375 C-2.08941406 3.55773437 -1.61632812 2.74046875 -1.12890625 1.8984375 C-0.75636719 1.27195312 -0.38382812 0.64546875 0 0 Z " fill="#D4D4D4" transform="translate(317,294)"/>
<path d="M0 0 C2.7839183 1.39195915 2.97898997 3.15575779 4 6 C-0.455 6.495 -0.455 6.495 -5 7 C-5.33 6.34 -5.66 5.68 -6 5 C-4.00856305 2.01284458 -3.23356015 1.21258505 0 0 Z " fill="#333333" transform="translate(445,354)"/>
<path d="M0 0 C0.99 0 1.98 0 3 0 C3 2.64 3 5.28 3 8 C2.01 8 1.02 8 0 8 C-0.33 7.01 -0.66 6.02 -1 5 C-1.99 5.99 -2.98 6.98 -4 8 C-2.25 2.25 -2.25 2.25 0 0 Z " fill="#686868" transform="translate(466,343)"/>
<path d="M0 0 C0.66 1.32 1.32 2.64 2 4 C-1.4352048 6.29013653 -2.985331 6.17842973 -7 6 C-6.75 4.125 -6.75 4.125 -6 2 C-3.85331506 0.61504198 -2.56128588 0 0 0 Z " fill="#323232" transform="translate(502,354)"/>
<path d="M0 0 C0 1.65 0 3.3 0 5 C-0.7425 5.268125 -1.485 5.53625 -2.25 5.8125 C-4.86636554 6.94229421 -6.80187111 8.20893202 -9 10 C-7.49946106 6.88349604 -5.93818042 3.86850702 -4 1 C-1 0 -1 0 0 0 Z " fill="#F9F9F9" transform="translate(321,297)"/>
<path d="M0 0 C2.31 0.33 4.62 0.66 7 1 C7 1.66 7 2.32 7 3 C7.66 3.33 8.32 3.66 9 4 C8.67 4.66 8.34 5.32 8 6 C5.69 6 3.38 6 1 6 C1 5.34 1 4.68 1 4 C0.34 3.67 -0.32 3.34 -1 3 C-0.67 2.01 -0.34 1.02 0 0 Z " fill="#282828" transform="translate(145,274)"/>
<path d="M0 0 C0.33 0.66 0.66 1.32 1 2 C0.0625 4.625 0.0625 4.625 -1 7 C2.27773504 6.24849977 2.27773504 6.24849977 4 3 C3.67 4.65 3.34 6.3 3 8 C1.02 8 -0.96 8 -3 8 C-3.33 6.02 -3.66 4.04 -4 2 C-2.68 1.34 -1.36 0.68 0 0 Z " fill="#292929" transform="translate(454,367)"/>
<path d="M0 0 C0.99 0.33 1.98 0.66 3 1 C2.67 3.31 2.34 5.62 2 8 C0.68 8.33 -0.64 8.66 -2 9 C-1.34 6.03 -0.68 3.06 0 0 Z " fill="#A0A0A0" transform="translate(455,365)"/>
<path d="M0 0 C0.99 0.66 1.98 1.32 3 2 C2.38348417 3.6490302 1.75652258 5.29415841 1.125 6.9375 C0.77695312 7.85402344 0.42890625 8.77054687 0.0703125 9.71484375 C-1 12 -1 12 -3 13 C-3 11.68 -3 10.36 -3 9 C-2.34 9 -1.68 9 -1 9 C-1.20625 7.88625 -1.4125 6.7725 -1.625 5.625 C-1.74875 4.42875 -1.8725 3.2325 -2 2 C-1.34 1.34 -0.68 0.68 0 0 Z " fill="#D7D7D7" transform="translate(317,302)"/>
<path d="M0 0 C1.32 0.33 2.64 0.66 4 1 C2.8572081 2.16964602 1.71068285 3.33564556 0.5625 4.5 C-0.07558594 5.1496875 -0.71367187 5.799375 -1.37109375 6.46875 C-3 8 -3 8 -4 8 C-4 6.35 -4 4.7 -4 3 C-2.68 2.67 -1.36 2.34 0 2 C0 1.34 0 0.68 0 0 Z " fill="#1E1E1E" transform="translate(491,354)"/>
<path d="M0 0 C-0.8125 1.9375 -0.8125 1.9375 -2 4 C-2.99 4.33 -3.98 4.66 -5 5 C-5.66 5.66 -6.32 6.32 -7 7 C-7 3 -7 3 -5.75 1.25 C-4 0 -4 0 0 0 Z " fill="#A8A8A8" transform="translate(501,352)"/>
<path d="M0 0 C0.66 1.32 1.32 2.64 2 4 C3.65 2.68 5.3 1.36 7 0 C7 0.99 7 1.98 7 3 C4.0936485 5.80255323 3.21174952 6 -1 6 C-0.67 4.02 -0.34 2.04 0 0 Z " fill="#686868" transform="translate(486,357)"/>
<path d="M0 0 C0.598125 0.226875 1.19625 0.45375 1.8125 0.6875 C-0.1875 3.6875 -0.1875 3.6875 -3.1875 4.6875 C-3.8475 5.3475 -4.5075 6.0075 -5.1875 6.6875 C-5.1875 2.6875 -5.1875 2.6875 -3.9375 0.875 C-2.1875 -0.3125 -2.1875 -0.3125 0 0 Z " fill="#ABABAB" transform="translate(444.1875,352.3125)"/>
<path d="M0 0 C1.65 0 3.3 0 5 0 C4.67 2.31 4.34 4.62 4 7 C3.67 6.34 3.34 5.68 3 5 C2.01 5 1.02 5 0 5 C0 3.35 0 1.7 0 0 Z " fill="#323232" transform="translate(474,353)"/>
<path d="M0 0 C2.76276177 0.52268466 5.3260876 1.10869587 8 2 C7.625 4.9375 7.625 4.9375 7 8 C6.01 8.495 6.01 8.495 5 9 C4.731875 7.88625 4.46375 6.7725 4.1875 5.625 C3.34190981 1.78159049 3.34190981 1.78159049 0 0 Z " fill="#303030" transform="translate(444,293)"/>
<path d="M0 0 C0.99 0 1.98 0 3 0 C3 1.98 3 3.96 3 6 C2.01 6.495 2.01 6.495 1 7 C0.67 6.01 0.34 5.02 0 4 C-0.99 4.495 -0.99 4.495 -2 5 C-1.125 1.125 -1.125 1.125 0 0 Z " fill="#9B9B9B" transform="translate(471,352)"/>
<path d="M0 0 C2.52349243 3.12432397 4.27256146 6.38060496 6 10 C3.32388302 9.63088042 2.1568531 9.15144437 0.1875 7.25 C-1.31690887 4.3995411 -0.92250763 3.01911587 0 0 Z " fill="#464646" transform="translate(290,334)"/>
<path d="M0 0 C0.99 0.33 1.98 0.66 3 1 C2.01 1 1.02 1 0 1 C0 0.67 0 0.34 0 0 Z M-2 1 C1 3 1 3 2 5 C1.01 6.485 1.01 6.485 0 8 C-0.33 7.01 -0.66 6.02 -1 5 C-1.99 4.34 -2.98 3.68 -4 3 C-3.34 2.34 -2.68 1.68 -2 1 Z " fill="#1A1A1A" transform="translate(219,286)"/>
<path d="M0 0 C0.66 0.33 1.32 0.66 2 1 C1.6875 2.9375 1.6875 2.9375 1 5 C0.01 5.33 -0.98 5.66 -2 6 C-2 2 -2 2 0 0 Z " fill="#1D1D1D" transform="translate(455,357)"/>
<path d="M0 0 C0.33 0.66 0.66 1.32 1 2 C1.66 2 2.32 2 3 2 C2.67 2.99 2.34 3.98 2 5 C0.125 4.6875 0.125 4.6875 -2 4 C-2.66 3.01 -3.32 2.02 -4 1 C-3.01 1.33 -2.02 1.66 -1 2 C-0.67 1.34 -0.34 0.68 0 0 Z " fill="#1A1A1A" transform="translate(452,363)"/>
<path d="M0 0 C1 2 2 4 3 6 C1.35 6.66 -0.3 7.32 -2 8 C-1.47731534 5.23723823 -0.89130413 2.6739124 0 0 Z " fill="#222222" transform="translate(462,351)"/>
<path d="M0 0 C0.66 0.33 1.32 0.66 2 1 C0.68 3.64 -0.64 6.28 -2 9 C-3 5 -3 5 -3 3 C-2.34 3 -1.68 3 -1 3 C-0.67 2.01 -0.34 1.02 0 0 Z " fill="#242424" transform="translate(462,346)"/>
<path d="M0 0 C0.66 0 1.32 0 2 0 C2.66 1.65 3.32 3.3 4 5 C2.35 4.67 0.7 4.34 -1 4 C-0.67 2.68 -0.34 1.36 0 0 Z " fill="#1C1C1C" transform="translate(451,310)"/>
<path d="M0 0 C2.475 0.99 2.475 0.99 5 2 C5 2.99 5 3.98 5 5 C3.02 4.01 1.04 3.02 -1 2 C-0.67 1.34 -0.34 0.68 0 0 Z " fill="#232323" transform="translate(472,301)"/>
</svg>
